<?xml version="1.0" encoding="UTF-8"?>
<!DOCTYPE svg PUBLIC "-//W3C//DTD SVG 1.1//EN" "http://www.w3.org/Graphics/SVG/1.1/DTD/svg11.dtd">
<!-- Creator: CorelDRAW 2018 (64 Bit) -->
<svg xmlns="http://www.w3.org/2000/svg" xml:space="preserve" width="655px" height="766px" version="1.1" style="shape-rendering:geometricPrecision; text-rendering:geometricPrecision; image-rendering:optimizeQuality; fill-rule:evenodd; clip-rule:evenodd"
viewBox="0 0 501.75 586.97"
 xmlns:xlink="http://www.w3.org/1999/xlink">
 <defs>
  <style type="text/css">
   <![CDATA[
    .str0 {stroke:#42B5FC;stroke-width:6.38;stroke-linecap:round;stroke-linejoin:round;stroke-miterlimit:22.9256}
    .fil0 {fill:#42B5FC}
   ]]>
  </style>
 </defs>
 <g id="Capa_x0020_1">
  <metadata id="CorelCorpID_0Corel-Layer"/>
  <path class="fil0" d="M229.2 2.01c-4.6,0 -29.99,4.05 -35.42,5.41 -2.71,0.67 -5.6,1.08 -8.42,1.51l-9.53 1.58c-5.61,1.41 -10.57,2.07 -16.68,3.87l-16.43 4.69c-3.28,0.76 -12.29,3.49 -15.78,5.15 -2.39,1.14 -4.79,1.98 -6.99,2.98l-13.39 7.48c-3.87,2.33 -3.21,2.27 -6.05,4.8 -3.53,3.16 -7.37,5.86 -8.62,11.86 -0.26,1.26 -0.12,6.08 0.42,7.74 0.06,0.19 0.13,0.35 0.2,0.53l0.76 1.43c0.95,2.03 1.21,4.94 2.31,6.55 0.77,1.13 6.24,5.34 9.7,6.38 0.79,0.23 1.14,0.33 2.16,0.55 3.04,0.66 6.92,0.49 8.76,0.22l2.64 -0.73c0.2,-0.05 0.38,-0.07 0.58,-0.12l5.14 -1.4c2.88,-0.76 1.06,-0.22 3.41,-1.46 0.15,-0.08 0.32,-0.17 0.47,-0.25l3.34 -1.28c0.22,-0.06 0.9,-0.17 1.12,-0.24 0.87,-0.26 10.49,-5.27 14.77,-6.62l11.84 -4.5c10.62,-3.39 12.81,-2.38 17.08,-3.6 11.75,-3.35 20.84,-1.51 33.08,-1.55 5.74,-0.03 13.2,1.61 18.28,3.41 5.15,1.82 10.95,2.74 16.09,5.67 3.13,1.78 3.45,1.36 6.74,3.86l0.71 0.52c4.57,3.37 7.18,5.44 10.37,10.77 3.8,6.37 3.6,13.8 1.5,20.7 -1.38,4.52 -0.61,3.64 -3.59,8.61 -0.78,1.31 -0.7,0.71 -1.49,2.13 -2.04,3.67 -2.75,4.09 -5.84,7.38 -1.45,1.55 0.02,0.27 -1.34,1.38l-11.17 4.97c-11.6,3.57 -25.05,3.92 -37.42,0.57 -3.25,-0.88 -6.48,-0.93 -9.6,-1.45 -6.12,-1.03 -10.9,-3.05 -16.96,-4.45l-47.41 -12.63c-3.97,-0.79 -9.28,-3.21 -13.04,-3.89l-17.74 -3.44c-3.65,-0.57 -6.66,-0.82 -10.16,-1.47 -3.34,-0.63 -7.16,-0.51 -10.49,-0.08 -2.6,0.33 -4.34,-0.98 -7.61,-0.56l-15.47 4.46c-2.83,0.94 -5.07,2.07 -6.91,3.91 -8.58,8.58 -4.49,5.68 -9.22,12.3 -2.15,3 -3.04,4.37 -3.15,8.8 -0.08,3.7 -1.16,5.06 -1.21,9.3 -0.03,3.34 0.22,9.74 2,13.24l3.79 7.26c1.04,1.93 0.89,1.83 2.43,3.38 2.55,2.56 5.53,5.88 9.02,7.11 2.41,0.85 9.26,5.44 14.2,7.48l19.41 2.98c3.03,0.29 1.75,1.07 4.02,1.12l16.63 -0.79c3.95,-0.64 10.15,-0.08 13.47,-0.6l9.65 -1.47c1.76,-0.12 2.77,-0.31 4.69,-0.59l37.63 -8.82c2.6,-0.43 -0.01,0.11 1.83,-0.75 3.85,-1.82 9.03,-2.29 13.43,-3.48l17.05 -2.65c0.21,-0.03 0.37,-0.07 0.57,-0.1l1.14 -0.22c0.9,-0.13 1.41,-0.12 2.28,-0.22l23.09 -0.53c2.82,0 17.63,2.22 20.89,3.45 5.07,1.9 11.3,3.2 16.2,5.35 1.09,0.47 0.32,0.02 1.26,0.69l4.36 3.15c1.9,1.33 -0.12,0.01 1.88,1.62 2.56,2.05 2.04,0.67 3.95,2.79 5.96,6.63 11.21,11.82 13.64,20.55l0.43 2.6c0.08,0.85 0.58,0.43 -0.49,0.91 -0.2,4.73 0.51,6.5 -1.37,10.15 -4.94,9.61 -8.34,13.27 -21.69,14.76 -3.15,0.35 -2.73,0.95 -4.71,1.15 -2.29,0.24 -3,-0.44 -5.36,-0.56 -7.29,-0.37 -5.16,-0.59 -10.62,-1.38 -13.18,-1.91 -27.23,-5.13 -39.88,-7.93 -10.82,-2.4 -21.49,-3.23 -32.28,-4.05l-16 -2.28c-2.75,-0.53 -2.46,0.21 -4.59,-0.17l-9.82 -0.98c-1.34,0 -2.86,-0.83 -4.57,-1.05l-26.63 -2.78c-3.83,-0.58 -7.99,0.14 -11.76,-0.37 -7.03,-0.95 -13.9,-0.99 -21.84,-0.74 -2.73,0.09 -6.14,-1.09 -10.65,-0.87 -2.39,0.11 -2.77,0.59 -5.36,0.63 -4.87,0.08 -4.19,-0.82 -9.15,0.16 -1.68,0.33 -2.35,0.25 -4.31,0.42 -1.73,0.15 -2.02,0.44 -3.89,0.75 -5.24,0.85 -4.78,-1.77 -19.42,3.22 -3.85,1.32 -6.76,0.68 -12.82,4.3 -2.28,1.36 -2.75,1.83 -4.89,3.78 -2.29,2.09 -3.62,1.42 -5.21,4.37 -4.96,9.17 -5.62,7.95 -4.95,19.8 0.24,4.27 2.61,10.55 5.46,13.39l3.4 3.47c1.19,1.7 3.58,3.91 6.19,5.09 1.66,0.75 1.95,0.66 3.45,1.64l11 2.99c0.2,0.03 0.35,0.09 0.54,0.12 6.62,1.01 17.17,0.45 20.89,-1.29 3.17,-1.47 0.25,0.23 3.23,-0.75l9.72 -3.1c3.92,-0.98 9.62,-4.67 13.68,-6 1.25,-0.41 1.39,-0.18 2.69,-0.64 1.91,-0.65 0.11,-0.23 2.36,-1.01l1.46 -0.43c0.15,-0.05 0.33,-0.11 0.48,-0.16l10.59 -3.6c0.17,-0.05 0.35,-0.09 0.52,-0.14 1.34,-0.41 0.35,-0.06 1.51,-0.51 1.72,-0.66 2.42,-1.03 5.22,-1.32 4.07,-0.42 5.69,-2.13 10.26,-2.72 2.2,-0.29 4.27,0.08 6.34,-0.42 6.45,-1.55 23.24,-2.44 29.13,-2.06 2.23,0.14 2.74,0.55 5.41,0.59 3.56,0.05 6.11,1.14 9.19,1.63 0.05,0 0.17,-0.1 1.23,0.07l1.42 0.35c0.15,0.03 0.34,0.09 0.5,0.13 5.72,1.35 11.31,4.2 16.56,7.15l2.1 1.03c5.29,2.94 13.58,13.38 13.84,16.18l-0.58 2.68c-0.68,3.88 3.07,4.75 -2.15,14.5 -4.33,8.08 -17.81,15.55 -27.36,18.28 -3.02,0.86 -8.36,2.78 -10.46,3.12 -1.63,0.25 -2.28,-0.25 -4.42,0.25 -5.82,1.34 -12.44,2.59 -18.22,2.7 -2.74,0.05 0.02,-0.3 -1.85,-0.3l-13.89 0.31c-8.17,-0.43 -16.73,-2.28 -20.48,-2.58 -4.05,-0.32 -2.11,1.35 -6.3,-0.14 -7.15,-2.54 -35.4,-4.08 -41.53,-2.64 -3.44,0.81 -10.89,2.63 -12.66,3.59 -1.38,0.76 0.11,-0.14 -1.16,0.93l-0.76 0.68c-5.2,4.56 -3.66,6.42 -6.18,9.41l-2.09 3.9c-1.25,3.59 0.06,12.23 6.09,16.07 2.6,1.65 0.58,0.45 2.45,2.43 1.8,1.91 9.64,5.52 12.4,5.87l13.38 4.46c3.18,0 0.07,-0.76 2.99,-0.21 6.71,1.28 3.4,0.23 6.55,0.31 2.26,0.06 0.96,1.06 3.26,1.06 1.45,0 2.03,-0.78 4.68,-0.56 2.31,0.19 7.89,1.12 10.34,0.76 4.37,-0.64 11.57,0.56 15.85,-0.29 2.36,-0.47 0.47,-0.83 4.82,-1.07l14.16 -1.75c4.62,-0.25 5.14,-0.12 7.89,-1.18 1.46,-0.57 0.84,-0.63 2.37,-0.98l34.03 -10.43c1.27,-0.68 1.24,-0.84 2.33,-1.13 1.68,-0.45 2.5,-0.21 4.41,-0.88l18.92 -5.21c9.16,-2.16 19.37,-2.52 25.74,0.04 0.19,0.08 0.78,0.26 0.99,0.33 2.1,0.76 1.19,0.19 2.51,1.16 0.96,0.7 0.4,0.53 1.42,1.26 6.64,4.78 4.41,9.63 4.54,14.75 0.07,2.48 0.83,2.29 0.25,5.05 -0.77,3.62 -4.8,11.84 -9.32,14.03 -7.36,3.56 -8.04,4.64 -16.85,6.92 -5.4,1.4 -15.62,3.06 -19.63,2.52 -5.08,-0.69 -8.98,0.77 -13.8,0.47 -10.11,-0.61 -16.06,1.77 -25.62,2.91 -8.14,0.97 -11.42,4.26 -18.25,7.51 -3.41,1.62 -5.72,4.15 -7.45,7.56 -1.95,3.83 -2.28,5.98 -0.46,9.73 1.02,2.07 1.08,3.57 2.02,5.29 3.13,5.71 11.9,10.4 17.34,13.71l0.88 0.6c2.33,1.5 5.99,2.02 8.22,3.23 1.75,0.96 2.77,1.37 4.41,2.26 2.38,1.29 20.46,5.7 23.72,6.17l6.16 1.04c10.19,1.94 18.69,2.23 28.13,2.47l12.77 0.6c1.96,0 0.84,-0.38 3.05,-0.22 3.54,0.26 8.36,-0.29 11.77,0.34 4.76,0.88 -0.28,1.21 5.5,0.09l23.46 -0.79c8.08,0.01 9.42,-1.34 15.08,-1.07 1.35,0.06 2.35,0.14 2.94,0.01 1.55,-0.36 0.11,-0.51 2.85,-0.74 1.48,-0.12 3.12,0.1 4.2,0.01l17.04 -1.9c3.92,-0.66 8.06,-1.09 12.04,-2.7 3.85,-1.55 3.38,-0.59 6.52,-0.73 1.2,-0.05 1.86,-1.15 6.6,-1.66 9.7,-1.05 18.51,-3.86 27.9,-6.24l10.45 -3.88c4.58,-2.06 8.14,-3.2 11.76,-5.08l4.65 -2.06c6.21,-1.84 15.53,-10.67 17.24,-16.66 1.98,-6.92 -4.29,-11.18 -11.97,-11.18 -10.26,0 -21.61,1.61 -31.98,3.18l-19.1 3.42c-5.89,1.11 -12.26,2.89 -18.48,3 -7.29,0.13 -17.34,2.15 -25.56,2.37 -6.98,0.19 -4.19,0.99 -12.74,-0.15 -7,-0.94 -19.79,-1.93 -24.92,-6.23 -0.75,-0.64 -1.06,-1.17 -1.69,-1.7 -2.74,-2.26 -6.15,-4.94 -7.59,-8.48l-2.05 -6c-0.24,-1.02 -0.8,-2.44 -0.89,-2.96 -0.37,-2.04 -0.23,-4.64 -0.55,-6.81 -0.41,-2.82 0.18,-7.23 0.56,-8.73 1.09,-4.34 2.3,-5.19 4.92,-8.55 0.92,-1.17 -0.24,-0.01 0.87,-1.12l6.95 -5.05c0.15,-0.06 0.32,-0.13 0.47,-0.2l15.2 -3.63c10.64,-1.84 9.48,-0.1 17.56,-0.51 7.18,-0.37 10.58,0.93 16.39,1.7 1.34,0.18 2.48,0.03 3.79,0.14l45.22 9.31c2.59,0.48 4.39,2.31 9.31,2.86l28.02 7.22c3.15,0.55 4.48,1.53 6.04,1.88l18.13 1.61c3.14,-0.31 4.4,-0.22 7.44,0.15l24.98 -3.89c1.86,-0.77 3.43,-1.57 5.06,-2.34l5.4 -2.89c3.29,-2.49 6.3,-5.69 7.08,-9.22 2.44,-11.07 -2.27,-12.99 -4.68,-17.28 -1.32,-2.33 0.66,-0.37 -1.2,-2.55 -3.2,-3.73 -8.26,-5.17 -11.8,-7.7 -7.28,-5.21 -29.67,-8.49 -38.6,-8.47 -3.85,0.01 -11.36,0.55 -14.1,0.21 -4.3,-0.54 -51.21,6.03 -70.71,3.94 -4.95,-0.53 -9.76,-0.28 -14.74,-0.76 -4.83,-0.47 -9.1,-1.19 -13.63,-1.64 -2.91,-0.29 -3.44,-1.11 -6.07,-1.54 -10.48,-1.72 -21.11,-4.29 -30.54,-9.09 -1.43,-0.73 -0.94,-0.39 -1.9,-0.73 -5.17,-1.83 -10.18,-4.84 -14.65,-8.05l-6.13 -6.07c-1.49,-1.53 -5.67,-10.28 0.45,-16.67 1.38,-1.44 2.67,-2.28 4.33,-3.02l2.46 -0.89c0.16,-0.05 0.34,-0.11 0.5,-0.17 0.15,-0.05 0.32,-0.12 0.48,-0.17 2.89,-0.91 7.34,-0.49 9.78,-0.89 4.46,-0.71 12.4,1.36 17.16,1.98l18.38 3.28c7.63,1.3 14.85,3.73 22.61,4.92 4.06,0.62 7.61,0.63 13.18,1.98 5.6,1.37 15.49,0.67 21.21,1.51 9.22,1.35 19.85,0.55 28.92,1.19l60.63 -4.1c1.63,-0.27 3.43,-0.87 4.86,-1.04 1.14,-0.14 2.03,-0.03 3.16,-0.22 0.62,-0.1 2.48,-0.73 2.54,-0.74 7.43,-1.96 19.33,-3.8 25.72,-7.97l6.07 -2.85c3.38,-1.53 8,-5.69 10.41,-8.49 1.48,-1.73 3.12,-6.15 3.63,-8.47 0.64,-2.92 1.46,-8.39 1.74,-10.64 0.89,-6.97 -1.09,-15.68 -3.33,-21.53 -0.77,-2.02 -1.24,-2 -2.37,-3.92 -2.55,-4.31 -2.24,-5.85 -9.16,-9.64 -8.8,-4.81 -18.08,-3.8 -27.25,0 -2.12,0.87 -3.41,1.93 -5.2,2.78 -1.7,0.81 -4.63,1.4 -6.47,2.13 -3.78,1.49 -7.95,3.03 -11.78,4.52 -5.51,2.14 -12.24,5.06 -18.2,6.56 -5.95,1.5 -10.3,3.57 -15.94,4.64 -0.92,0.18 -2.3,0.56 -3.73,0.87l-20.72 3.13c-12.68,0.18 -32.11,2.78 -43.51,-11.34 -2.48,-3.07 -3.54,-5.85 -4.77,-9.35l-0.36 -0.92c-0.84,-2.19 -1.5,-10.96 -1.02,-13.73l1.16 -6.84c1.42,-6.08 5.19,-11.71 10.48,-15.02 0.61,-0.39 0.25,-0.08 1.24,-0.75l11.46 -6.01c4.83,-1.66 10.12,-3.3 15.23,-3.82l39.19 1.12 54.4 12.14c10.69,0.75 16.05,4.27 26.69,-1.25 0.75,-0.39 0.81,-0.35 1.86,-0.89 2.97,-1.55 3.68,-3.8 5.29,-6.19 6.45,-9.62 4.16,-11.76 3.49,-20.34 -0.37,-4.7 -2.91,-8.65 -5.67,-11.87l-0.88 -1.31c-1.99,-3.06 -5.67,-4.93 -8.65,-6.82 -6.31,-4.02 -5.63,-5.87 -17.4,-8.93 -8.49,-2.21 -19.43,-6.42 -28.26,-6.72l-16.13 -1.58c-12.6,-1.62 -34.87,2.94 -47.29,6.26 -2.52,0.67 -3.62,1.7 -6.13,2.27l-15.13 2.67c-3.08,0.75 -3.25,1.4 -6.96,1.43 -10.83,0.09 -19.77,-1.18 -29.03,-5.45 -4.27,-1.96 -7,-4.39 -10.02,-7.62 -1.88,-2.01 -1.91,-3.5 -3.01,-5.52 -5.46,-10.05 -1.77,-14.62 4.12,-22.39 0.59,-0.78 0.77,-1.03 1.65,-1.74 0.86,-0.7 1.22,-0.87 1.98,-1.38l5.77 -2.97c1.1,-0.54 0.39,-0.06 1.35,-0.6l8.08 -2.8c6.02,-2.12 16.64,-2.28 22.53,-0.73 7.19,1.89 15.88,3.18 22.59,6.34l15.3 5.43c0.13,0.05 0.31,0.11 0.44,0.16l5.49 2.03c7.98,2.27 22.08,10.07 32.34,6.07 4.01,-1.57 7.7,-0.6 10.2,-4.67 4.12,-6.68 0.21,-12.68 -2.5,-19.12 -0.56,-1.33 -0.29,-0.85 -0.91,-1.73 -2.63,-3.75 -8.6,-10.63 -12,-13.09 -3.7,-2.69 -8.92,-5.79 -12.06,-8.91l-15.28 -8.83c-16.78,-7.92 -33.75,-13.98 -51.89,-17.66 -6.11,-1.23 -9.78,-3.06 -16.72,-3.17l-25.21 -3.49c-3.52,-0.78 -5.98,0.03 -7.51,-0.38 -4.67,-1.25 -4.3,-0.76 -9.19,-0.23l-18.81 -0.79c-2.61,-0.2 -6.19,0.63 -8.69,0.77 -1.41,0.08 -1.96,-0.45 -3.9,-0.54 -2.2,-0.09 -2.87,0.33 -4.89,0.57l-13.34 1.55c-1.17,0.04 -2.7,-0.37 -3.39,-0.37z"/>
  <g id="_1343023388304">
   <path class="fil0 str0" d="M309.72 514.83c0.22,0.79 1.04,2.74 1.48,3.98l20.47 56.11c0.84,2.25 2.35,5.56 2.9,8.25l3.84 0.24 0.04 -79.13c-0.3,-1.48 -0.41,-1.05 -0.87,-1.76l-2.01 0c-1.3,1.67 -0.45,-1.58 -1.16,2.42 -0.41,2.33 0.82,61.82 -0.19,64.99l-16.41 -44.94c-0.48,-1.28 -0.42,-0.84 -0.84,-1.85l-7.74 -20.65 -3.74 0.18 0.04 80.19 4 0.55 0.19 -68.58z"/>
   <path class="fil0 str0" d="M178.87 506.58c15.92,-0.03 23.51,-0.46 23.51,19.28 0,7.92 -0.15,12.92 -5.03,16.8 -4.63,3.67 -12.24,2.74 -18.74,2.72l0.26 -38.8zm13.69 42.65c6.13,-2.66 10.19,-4.67 12.8,-10.86 1.56,-3.72 1.74,-16.82 0.95,-21.91 -2.6,-16.64 -20.74,-13.94 -31.73,-13.94l0.06 80.52 3.98 0 0.01 -33.61 10.09 0.14c0.28,5.71 12.35,26.19 13.77,33.67l4.44 -0.2c-0.46,-2.78 -9.05,-21.43 -10.96,-26.02 -0.76,-1.82 -1.96,-6.44 -3.41,-7.79z"/>
   <path class="fil0 str0" d="M255.19 506.69c0.12,-0.03 0.21,-0.25 0.27,-0.28 3.74,-1.85 12,2.9 13.97,9.56 1.19,4.01 1.06,43.49 0.71,49.7 -0.37,6.62 -4.62,12.24 -10.98,13.69 -5.14,1.17 -11.45,-1.31 -14.36,-7.69 -0.46,-1 -0.49,-0.86 -0.85,-1.97 -1,-3.13 -0.52,-43.39 -0.47,-49.93 0.08,-10.08 5.98,-11.74 11.71,-13.08zm-2.25 -4.18c-18.18,4.23 -13.49,25.19 -13.49,44.23 0,12.38 -3.15,28.49 8.86,34.73 3.75,1.95 7.57,2.96 12.07,1.85 3.87,-0.96 6.64,-2.6 9.06,-4.96 6.07,-5.89 4.77,-16.11 4.77,-24.21l-0.17 -36.18c-1.7,-11.04 -10.06,-18.03 -21.1,-15.46z"/>
   <path class="fil0 str0" d="M115.39 550.08c0.04,-0.21 0.06,-0.38 0.1,-0.59l0.22 -1.12c0.04,-0.19 0.08,-0.36 0.12,-0.54l9.27 -41.2c1.37,7.97 3.89,16.32 5.54,24.09 1.67,7.9 3.44,15.05 5.09,22.98 -2.38,0.7 -17.52,0.85 -21.37,0.05l1.03 -3.67zm-7.51 32.96c0.62,-1.98 0.75,-3.32 1.34,-5.62l3.17 -13.32c0.04,-0.2 0.07,-0.37 0.11,-0.57l0.24 -1.82c0.82,-4.73 1.74,-3.58 10.65,-3.58 4.48,0 9.01,-0.19 13.47,0.23 -0.21,2.73 4.42,19.76 5.35,24.7l3.92 -0.11c0.19,-2.7 -1.38,-7.35 -2,-10.19 -0.8,-3.57 -1.56,-6.38 -2.29,-10.15 -0.12,-0.59 -0.18,-1.17 -0.28,-1.66 -0.03,-0.17 -0.06,-0.34 -0.09,-0.51l-1.24 -5.49c-0.05,-0.24 -0.42,-1.68 -0.51,-2.04 -0.73,-3.05 -1.54,-6.57 -2.27,-10l-0.87 -4.5c-0.05,-0.21 -0.23,-0.78 -0.28,-0.99l-7.73 -34.9c-7.75,0 -6.55,-1.37 -7.97,5l-12.05 54.03c-1.21,5 -4.09,16.42 -4.59,21.47l3.92 0.02z"/>
   <path class="fil0 str0" d="M435.5 506.56l27.09 0.23 -0.11 -4.27 -31.28 0 0.07 80.52c7.62,0 24.62,-0.88 31.14,0.37l0.07 -4.05c-6.1,-1.14 -20.17,-0.38 -27.23,-0.38l0.07 -38.24 22.53 0.31 -0.06 -3.74c-3.64,-1.54 -17.52,-0.61 -22.55,-0.61l0.26 -30.14z"/>
   <path class="fil0 str0" d="M74.35 566.24c-8.62,0 -0.9,1.59 -8.08,8.95 -8.89,9.11 -20.46,2.59 -22.41,-6.5l-0.21 -39.46c0,-12.66 -0.44,-19.81 10.37,-22.73 0.17,-0.05 0.35,-0.1 0.53,-0.14 0.18,-0.05 0.35,-0.1 0.53,-0.13 0.18,-0.04 0.35,-0.1 0.54,-0.12 1.45,-0.23 2.11,-0.18 3.46,0.15l2.36 0.81c0.14,0.05 0.33,0.1 0.47,0.16 1.53,0.58 1.27,0.35 2.56,1.46 4.94,4.31 3.42,4.44 6.1,10.47l4.06 0.33c-1.52,-6.89 -3.23,-12.01 -8.44,-15.07 -5.42,-3.19 -12.94,-3.13 -18.61,0.26 -11.22,6.7 -7.98,25.26 -7.98,38.69 0,13.98 -2.98,31.96 8.4,37.94 2.33,1.23 4.77,2.23 8.69,2.35 10.45,0.32 16.15,-6.99 17.66,-17.42z"/>
   <polygon class="fil0 str0" points="386.9,506.58 402.15,506.54 402.58,502.53 366.21,502.53 366.77,506.6 381.95,506.63 382.03,583.07 386.58,582.89 "/>
  </g>
 </g>
</svg>
