<?xml version="1.0" encoding="UTF-8"?>
<!DOCTYPE svg PUBLIC "-//W3C//DTD SVG 1.1//EN" "http://www.w3.org/Graphics/SVG/1.1/DTD/svg11.dtd">
<!-- Creator: CorelDRAW 2018 (64 Bit) -->
<svg xmlns="http://www.w3.org/2000/svg" xml:space="preserve" width="655px" height="574px" version="1.1" style="shape-rendering:geometricPrecision; text-rendering:geometricPrecision; image-rendering:optimizeQuality; fill-rule:evenodd; clip-rule:evenodd"
viewBox="0 0 679.66 595.64"
 xmlns:xlink="http://www.w3.org/1999/xlink">
 <defs>
  <style type="text/css">
   <![CDATA[
    .fil0 {fill:#F3F3F3}
   ]]>
  </style>
 </defs>
 <g id="Capa_x0020_1">
  <metadata id="CorelCorpID_0Corel-Layer"/>
  <path class="fil0" d="M310.46 2.73c-6.23,0 -40.61,5.48 -47.97,7.31 -3.67,0.92 -7.59,1.48 -11.41,2.05l-12.91 2.15c-7.59,1.9 -14.31,2.8 -22.59,5.24l-22.25 6.35c-4.45,1.03 -16.65,4.72 -21.39,6.98 -3.23,1.54 -6.48,2.68 -9.46,4.03l-18.13 10.14c-5.25,3.15 -4.35,3.07 -8.2,6.5 -4.78,4.27 -9.98,7.94 -11.68,16.06 -0.35,1.71 -0.16,8.25 0.57,10.49 0.08,0.25 0.17,0.48 0.27,0.72l1.03 1.94c1.29,2.74 1.64,6.68 3.13,8.86 1.04,1.53 8.46,7.24 13.14,8.64 1.07,0.32 1.54,0.45 2.92,0.75 4.13,0.9 9.38,0.67 11.87,0.3l3.58 -0.98c0.27,-0.07 0.51,-0.1 0.78,-0.17l6.96 -1.9c3.9,-1.02 1.44,-0.29 4.63,-1.97 0.2,-0.11 0.43,-0.24 0.64,-0.34l4.52 -1.73c0.29,-0.08 1.22,-0.24 1.51,-0.33 1.18,-0.35 14.21,-7.14 20.01,-8.97l16.04 -6.09c14.38,-4.6 17.35,-3.24 23.13,-4.88 15.92,-4.54 28.23,-2.04 44.81,-2.11 7.79,-0.03 17.89,2.19 24.77,4.63 6.97,2.46 14.83,3.71 21.79,7.68 4.24,2.42 4.68,1.85 9.13,5.23l0.96 0.7c6.19,4.57 9.73,7.38 14.05,14.59 5.15,8.62 4.88,18.69 2.03,28.04 -1.86,6.12 -0.82,4.94 -4.86,11.67 -1.06,1.77 -0.96,0.95 -2.02,2.87 -2.76,4.98 -3.73,5.55 -7.91,10 -1.97,2.1 0.03,0.38 -1.82,1.87l-15.13 6.74c-15.71,4.83 -33.93,5.3 -50.69,0.76 -4.39,-1.19 -8.77,-1.25 -13,-1.95 -8.29,-1.4 -14.77,-4.14 -22.97,-6.03l-64.22 -17.11c-5.38,-1.07 -12.57,-4.35 -17.66,-5.27l-24.04 -4.67c-4.94,-0.77 -9.01,-1.1 -13.75,-1.99 -4.53,-0.84 -9.7,-0.68 -14.21,-0.1 -3.53,0.45 -5.89,-1.33 -10.32,-0.76l-20.95 6.04c-3.83,1.27 -6.87,2.81 -9.36,5.3 -11.63,11.62 -6.08,7.69 -12.49,16.66 -2.91,4.07 -4.13,5.92 -4.27,11.91 -0.11,5.03 -1.57,6.87 -1.63,12.61 -0.05,4.53 0.3,13.19 2.7,17.93l5.14 9.83c1.41,2.62 1.2,2.48 3.29,4.58 3.45,3.47 7.49,7.97 12.22,9.64 3.26,1.15 12.54,7.36 19.23,10.13l26.29 4.04c4.11,0.39 2.38,1.44 5.45,1.52l22.52 -1.07c5.36,-0.88 13.75,-0.12 18.25,-0.82l13.07 -1.99c2.39,-0.17 3.76,-0.42 6.36,-0.8l50.97 -11.95c3.53,-0.59 -0.02,0.15 2.47,-1.02 5.23,-2.46 12.24,-3.1 18.19,-4.71l23.11 -3.59c0.28,-0.04 0.49,-0.09 0.77,-0.13l1.53 -0.3c1.23,-0.18 1.92,-0.17 3.1,-0.3l31.27 -0.72c3.83,0 23.89,3.02 28.31,4.68 6.87,2.57 15.3,4.34 21.94,7.24 1.47,0.64 0.43,0.03 1.71,0.93l5.9 4.28c2.57,1.8 -0.16,0.01 2.55,2.18 3.46,2.79 2.77,0.92 5.34,3.78 8.09,8.99 15.19,16.01 18.48,27.84l0.58 3.53c0.12,1.14 0.8,0.58 -0.65,1.23 -0.27,6.41 0.68,8.8 -1.86,13.75 -6.69,13.02 -11.3,17.98 -29.38,19.99 -4.26,0.48 -3.71,1.29 -6.38,1.56 -3.1,0.32 -4.06,-0.6 -7.27,-0.76 -9.87,-0.49 -6.98,-0.8 -14.39,-1.87 -17.85,-2.58 -36.88,-6.94 -54.01,-10.74 -14.66,-3.25 -29.11,-4.37 -43.73,-5.48l-21.68 -3.09c-3.72,-0.72 -3.32,0.29 -6.21,-0.24l-13.3 -1.33c-1.81,0 -3.87,-1.12 -6.19,-1.41l-36.08 -3.77c-5.18,-0.79 -10.81,0.19 -15.92,-0.5 -9.53,-1.29 -18.83,-1.35 -29.58,-1 -3.7,0.12 -8.32,-1.48 -14.43,-1.18 -3.24,0.15 -3.75,0.8 -7.27,0.86 -6.59,0.1 -5.67,-1.12 -12.39,0.2 -2.28,0.45 -3.19,0.34 -5.83,0.57 -2.35,0.21 -2.74,0.6 -5.27,1.02 -7.1,1.16 -6.48,-2.39 -26.31,4.37 -5.22,1.78 -9.16,0.92 -17.36,5.82 -3.09,1.85 -3.74,2.48 -6.63,5.12 -3.1,2.84 -4.9,1.92 -7.06,5.92 -6.71,12.42 -7.61,10.77 -6.71,26.82 0.33,5.79 3.54,14.3 7.41,18.13l4.6 4.71c1.61,2.3 4.85,5.3 8.39,6.9 2.24,1.01 2.64,0.89 4.67,2.21l14.9 4.05c0.27,0.04 0.47,0.13 0.73,0.17 8.96,1.36 23.26,0.6 28.3,-1.75 4.29,-2 0.33,0.31 4.37,-1.01l13.17 -4.2c5.31,-1.33 13.03,-6.33 18.53,-8.14 1.7,-0.55 1.88,-0.24 3.65,-0.85 2.57,-0.89 0.15,-0.32 3.19,-1.38l1.98 -0.58c0.2,-0.07 0.45,-0.15 0.65,-0.22l14.34 -4.88c0.23,-0.07 0.48,-0.12 0.71,-0.19 1.81,-0.55 0.47,-0.07 2.04,-0.68 2.33,-0.9 3.28,-1.4 7.07,-1.79 5.52,-0.57 7.71,-2.88 13.9,-3.69 2.99,-0.39 5.79,0.11 8.6,-0.56 8.72,-2.1 31.47,-3.31 39.45,-2.8 3.02,0.2 3.71,0.75 7.32,0.8 4.83,0.07 8.28,1.54 12.45,2.21 0.07,0.01 0.24,-0.13 1.67,0.1l1.92 0.46c0.21,0.05 0.46,0.13 0.68,0.18 7.75,1.83 15.33,5.7 22.43,9.69l2.85 1.4c7.16,3.98 18.39,18.12 18.74,21.91l-0.79 3.63c-0.91,5.26 4.17,6.44 -2.9,19.64 -5.87,10.96 -24.13,21.07 -37.06,24.76 -4.09,1.17 -11.33,3.78 -14.17,4.23 -2.21,0.35 -3.09,-0.33 -5.99,0.34 -7.88,1.82 -16.86,3.5 -24.69,3.66 -3.7,0.07 0.03,-0.41 -2.5,-0.41l-18.81 0.43c-11.06,-0.6 -22.66,-3.1 -27.75,-3.5 -5.48,-0.44 -2.86,1.83 -8.53,-0.19 -9.69,-3.44 -47.95,-5.53 -56.26,-3.58 -4.65,1.1 -14.75,3.57 -17.14,4.87 -1.88,1.02 0.15,-0.19 -1.58,1.25l-1.02 0.93c-7.05,6.17 -4.96,8.69 -8.37,12.75l-2.83 5.28c-1.69,4.86 0.07,16.57 8.24,21.76 3.53,2.24 0.79,0.61 3.33,3.3 2.43,2.59 13.05,7.47 16.79,7.94l18.13 6.04c4.3,0 0.08,-1.03 4.05,-0.27 9.08,1.72 4.6,0.3 8.87,0.41 3.05,0.08 1.3,1.43 4.41,1.43 1.96,0 2.76,-1.05 6.34,-0.75 3.14,0.26 10.69,1.52 14.01,1.03 5.92,-0.87 15.67,0.76 21.47,-0.39 3.19,-0.64 0.64,-1.13 6.53,-1.46l19.18 -2.36c6.26,-0.34 6.96,-0.16 10.69,-1.61 1.98,-0.76 1.14,-0.84 3.21,-1.32l46.09 -14.13c1.73,-0.92 1.68,-1.13 3.16,-1.53 2.27,-0.61 3.38,-0.28 5.98,-1.19l25.62 -7.05c12.41,-2.94 26.24,-3.42 34.86,0.05 0.26,0.1 1.06,0.35 1.35,0.45 2.84,1.03 1.61,0.25 3.4,1.57 1.3,0.95 0.54,0.71 1.92,1.71 8.99,6.46 5.97,13.03 6.16,19.97 0.09,3.36 1.11,3.11 0.33,6.84 -1.05,4.91 -6.49,16.04 -12.63,19.01 -9.96,4.82 -10.88,6.29 -22.82,9.38 -7.32,1.89 -21.16,4.14 -26.59,3.4 -6.88,-0.93 -12.16,1.05 -18.7,0.65 -13.68,-0.84 -21.75,2.39 -34.7,3.93 -11.03,1.31 -15.47,5.77 -24.72,10.18 -4.62,2.19 -7.75,5.61 -10.09,10.23 -2.64,5.19 -3.09,8.11 -0.62,13.18 1.38,2.81 1.47,4.85 2.74,7.17 4.24,7.73 16.12,14.1 23.49,18.58l1.19 0.8c3.15,2.03 8.1,2.74 11.13,4.39 2.37,1.29 3.75,1.85 5.97,3.05 3.23,1.75 27.72,7.72 32.14,8.36l8.34 1.41c13.8,2.63 25.32,3.03 38.1,3.34l17.31 0.82c2.64,0 1.13,-0.52 4.12,-0.3 4.8,0.35 11.32,-0.4 15.95,0.46 6.45,1.19 -0.38,1.63 7.44,0.13l31.78 -1.08c10.95,0.02 12.77,-1.81 20.44,-1.45 1.82,0.08 3.18,0.2 3.98,0.01 2.09,-0.48 0.14,-0.68 3.85,-0.99 2.01,-0.17 4.23,0.13 5.69,0.01l23.08 -2.58c5.31,-0.89 10.92,-1.47 16.31,-3.65 5.22,-2.11 4.58,-0.8 8.84,-0.99 1.63,-0.07 2.52,-1.56 8.94,-2.25 13.14,-1.43 25.07,-5.22 37.79,-8.46l14.15 -5.25c6.2,-2.78 11.03,-4.34 15.93,-6.88l6.3 -2.79c8.41,-2.49 21.04,-14.45 23.36,-22.57 2.68,-9.37 -5.81,-15.14 -16.21,-15.14 -13.91,0 -29.28,2.18 -43.32,4.31l-25.88 4.63c-7.98,1.5 -16.6,3.92 -25.03,4.06 -9.88,0.17 -23.5,2.91 -34.62,3.21 -9.46,0.27 -5.68,1.34 -17.26,-0.21 -9.48,-1.26 -26.81,-2.6 -33.75,-8.44 -1.03,-0.86 -1.45,-1.58 -2.31,-2.29 -3.7,-3.06 -8.32,-6.69 -10.27,-11.49l-2.78 -8.13c-0.32,-1.37 -1.08,-3.31 -1.2,-4 -0.51,-2.78 -0.31,-6.29 -0.74,-9.22 -0.57,-3.84 0.24,-9.8 0.75,-11.84 1.47,-5.88 3.11,-7.03 6.67,-11.57 1.24,-1.59 -0.33,-0.02 1.17,-1.52l9.42 -6.84c0.19,-0.09 0.44,-0.19 0.64,-0.28l20.59 -4.91c14.41,-2.49 12.84,-0.14 23.78,-0.7 9.72,-0.5 14.33,1.27 22.2,2.31 1.82,0.24 3.37,0.04 5.14,0.19l61.25 12.61c3.51,0.65 5.95,3.12 12.61,3.87l37.96 9.78c4.26,0.74 6.07,2.08 8.18,2.55l24.56 2.19c4.25,-0.43 5.95,-0.31 10.07,0.19l33.85 -5.27c2.51,-1.04 4.63,-2.12 6.84,-3.17l7.32 -3.91c4.46,-3.37 8.54,-7.71 9.59,-12.49 3.3,-14.99 -3.07,-17.6 -6.34,-23.4 -1.78,-3.17 0.9,-0.51 -1.63,-3.46 -4.33,-5.05 -11.19,-7 -15.98,-10.43 -9.86,-7.06 -40.19,-11.5 -52.29,-11.47 -5.21,0.01 -15.38,0.74 -19.1,0.28 -5.82,-0.73 -69.36,8.17 -95.77,5.34 -6.71,-0.72 -13.23,-0.38 -19.97,-1.04 -6.55,-0.64 -12.33,-1.6 -18.47,-2.21 -3.94,-0.39 -4.66,-1.51 -8.22,-2.1 -14.2,-2.32 -28.59,-5.8 -41.37,-12.3 -1.93,-0.99 -1.28,-0.53 -2.57,-0.99 -7,-2.48 -13.79,-6.55 -19.85,-10.9l-8.3 -8.23c-2.01,-2.07 -7.68,-13.93 0.62,-22.59 1.86,-1.94 3.61,-3.07 5.85,-4.08l3.33 -1.2c0.22,-0.08 0.47,-0.16 0.68,-0.23 0.21,-0.07 0.44,-0.18 0.65,-0.24 3.92,-1.23 9.94,-0.67 13.26,-1.2 6.03,-0.97 16.79,1.85 23.24,2.68l24.9 4.45c10.32,1.75 20.11,5.05 30.62,6.65 5.5,0.84 10.32,0.85 17.85,2.69 7.59,1.85 20.98,0.91 28.74,2.05 12.48,1.83 26.88,0.74 39.17,1.61l82.12 -5.55c2.22,-0.37 4.66,-1.19 6.6,-1.42 1.54,-0.19 2.75,-0.04 4.28,-0.29 0.84,-0.13 3.35,-0.99 3.43,-1.01 10.07,-2.65 26.19,-5.15 34.85,-10.79l8.22 -3.86c4.58,-2.07 10.83,-7.71 14.09,-11.51 2.01,-2.34 4.24,-8.32 4.93,-11.46 0.86,-3.96 1.97,-11.37 2.36,-14.41 1.2,-9.45 -1.49,-21.24 -4.51,-29.17 -1.05,-2.74 -1.69,-2.72 -3.22,-5.31 -3.46,-5.84 -3.03,-7.93 -12.41,-13.06 -11.92,-6.52 -24.49,-5.15 -36.92,-0.01 -2.86,1.19 -4.61,2.62 -7.03,3.78 -2.31,1.1 -6.27,1.89 -8.76,2.88 -5.13,2.02 -10.77,4.1 -15.96,6.12 -7.47,2.9 -16.59,6.86 -24.66,8.89 -8.06,2.03 -13.95,4.83 -21.59,6.29 -1.24,0.24 -3.12,0.75 -5.05,1.17l-28.07 4.24c-17.17,0.24 -43.5,3.77 -58.93,-15.36 -3.36,-4.16 -4.8,-7.92 -6.47,-12.67l-0.48 -1.24c-1.15,-2.97 -2.04,-14.85 -1.38,-18.6l1.56 -9.26c1.93,-8.24 7.03,-15.86 14.19,-20.35 0.83,-0.52 0.35,-0.11 1.69,-1.02l15.53 -8.14c6.53,-2.24 13.69,-4.47 20.62,-5.17l53.08 1.52 73.7 16.45c14.47,1.01 21.73,5.78 36.16,-1.71 1,-0.52 1.09,-0.46 2.51,-1.2 4.03,-2.09 4.99,-5.14 7.17,-8.38 8.74,-13.03 5.63,-15.93 4.72,-27.55 -0.5,-6.37 -3.94,-11.73 -7.67,-16.09l-1.21 -1.77c-2.69,-4.14 -7.67,-6.67 -11.71,-9.24 -8.55,-5.44 -7.63,-7.95 -23.57,-12.1 -11.49,-2.99 -26.31,-8.69 -38.27,-9.09l-21.85 -2.14c-17.07,-2.2 -47.24,3.98 -64.06,8.47 -3.41,0.91 -4.91,2.31 -8.31,3.08l-20.49 3.61c-4.18,1.03 -4.41,1.9 -9.43,1.94 -14.67,0.13 -26.78,-1.6 -39.32,-7.38 -5.78,-2.66 -9.49,-5.95 -13.58,-10.32 -2.55,-2.73 -2.58,-4.74 -4.07,-7.48 -7.39,-13.62 -2.4,-19.8 5.57,-30.32 0.81,-1.06 1.06,-1.4 2.24,-2.36 1.17,-0.95 1.66,-1.19 2.68,-1.87l7.83 -4.02c1.47,-0.74 0.51,-0.09 1.82,-0.82l10.94 -3.79c8.15,-2.87 22.54,-3.09 30.52,-0.99 9.74,2.56 21.51,4.31 30.61,8.58l20.72 7.36c0.18,0.07 0.42,0.15 0.6,0.22l7.43 2.75c10.81,3.07 29.91,13.64 43.81,8.22 5.43,-2.12 10.43,-0.82 13.82,-6.32 5.58,-9.06 0.28,-17.18 -3.39,-25.91 -0.76,-1.79 -0.39,-1.15 -1.23,-2.34 -3.56,-5.07 -11.66,-14.4 -16.26,-17.73 -5.01,-3.64 -12.08,-7.84 -16.34,-12.07l-20.7 -11.95c-22.73,-10.74 -45.71,-18.94 -70.29,-23.92 -8.27,-1.68 -13.24,-4.15 -22.63,-4.3l-34.16 -4.74c-4.77,-1.05 -8.1,0.05 -10.18,-0.5 -6.32,-1.69 -5.82,-1.04 -12.44,-0.32l-25.48 -1.07c-3.54,-0.27 -8.39,0.85 -11.78,1.05 -1.9,0.11 -2.65,-0.62 -5.28,-0.73 -2.98,-0.13 -3.88,0.44 -6.62,0.76l-18.07 2.11c-1.59,0.04 -3.66,-0.5 -4.6,-0.5z"/>
 </g>
</svg>
